<?xml version="1.0" standalone="no"?><!DOCTYPE svg PUBLIC "-//W3C//DTD SVG 1.1//EN" "http://www.w3.org/Graphics/SVG/1.1/DTD/svg11.dtd"><svg t="1699024894609" class="icon" viewBox="0 0 1381 1024" version="1.1" xmlns="http://www.w3.org/2000/svg" p-id="10208" xmlns:xlink="http://www.w3.org/1999/xlink" width="269.7265625" height="200"><path d="M1380.173913 1001.73913 7.279304 1001.73913c0-45.679304 57.321739-87.730087 147.055304-121.856-11.085913-20.858435-17.541565-44.989217-17.541565-70.811826C136.815304 731.091478 194.782609 667.826087 266.329043 667.826087c71.524174 0 129.513739 63.265391 129.513739 141.267478 0 3.561739 77.445565 7.034435 77.222957 10.529391 8.614957-1.357913 17.630609-2.359652 26.401391-3.606261L499.46713 51.378087C499.46713 22.995478 522.662957 0 551.268174 0l569.878261 0c28.605217 0 51.801043 22.995478 51.801043 51.378087l0 770.56c0 8.637217-2.31513 16.62887-6.099478 23.752348C1297.229913 883.378087 1380.173913 939.25287 1380.173913 1001.73913zM784.384 154.112c0-28.360348-23.195826-51.378087-51.801043-51.378087l-77.712696 0c-28.605217 0-51.801043 22.995478-51.801043 51.378087l0 102.756174c0 28.360348 23.195826 51.378087 51.801043 51.378087l77.712696 0c28.605217 0 51.801043-22.995478 51.801043-51.378087L784.384 154.112zM784.384 488.025043c0-28.360348-23.195826-51.378087-51.801043-51.378087l-77.712696 0c-28.605217 0-51.801043 22.995478-51.801043 51.378087l0 102.756174c0 28.338087 23.195826 51.355826 51.801043 51.355826l77.712696 0c28.605217 0 51.801043-22.995478 51.801043-51.355826L784.384 488.025043zM1069.32313 154.112c0-28.360348-23.195826-51.378087-51.801043-51.378087l-77.712696 0c-28.605217 0-51.801043 22.995478-51.801043 51.378087l0 102.756174c0 28.360348 23.195826 51.378087 51.801043 51.378087l77.712696 0c28.605217 0 51.801043-22.995478 51.801043-51.378087L1069.32313 154.112zM1069.32313 488.025043c0-28.360348-23.195826-51.378087-51.801043-51.378087l-77.712696 0c-28.605217 0-51.801043 22.995478-51.801043 51.378087l0 102.756174c0 28.338087 23.195826 51.355826 51.801043 51.355826l77.712696 0c28.605217 0 51.801043-22.995478 51.801043-51.355826L1069.32313 488.025043z" p-id="10209"></path></svg>